<svg xmlns="http://www.w3.org/2000/svg" viewBox="0 0 166 124" width="166" height="124" font-family="Roboto, Arial, sans-serif"><defs><pattern id="hatch" width="6" height="6" patternUnits="userSpaceOnUse" patternTransform="rotate(45)"><line x1="0" y1="0" x2="0" y2="6" stroke="#9aa0a6" stroke-width="1"/></pattern></defs><rect x="8" y="8" width="60" height="54" fill="#e8f5ee" stroke="#202124" stroke-width="1.2"/><line x1="32" y1="8" x2="44" y2="8" stroke="#ffffff" stroke-width="4"/><line x1="32" y1="8" x2="44" y2="8" stroke="#1a73e8" stroke-width="1.5"/><line x1="8" y1="29" x2="8" y2="41" stroke="#ffffff" stroke-width="4"/><line x1="8" y1="29" x2="8" y2="41" stroke="#1a73e8" stroke-width="1.5"/><rect x="8" y="62" width="60" height="27" fill="#e8f5ee" stroke="#202124" stroke-width="1.2"/><line x1="8" y1="69.5" x2="8" y2="81.5" stroke="#ffffff" stroke-width="4"/><line x1="8" y1="69.5" x2="8" y2="81.5" stroke="#1a73e8" stroke-width="1.5"/><rect x="8" y="89" width="36" height="27" fill="#e8f5ee" stroke="#202124" stroke-width="1.2"/><line x1="8" y1="96.5" x2="8" y2="108.5" stroke="#ffffff" stroke-width="4"/><line x1="8" y1="96.5" x2="8" y2="108.5" stroke="#1a73e8" stroke-width="1.5"/><line x1="20" y1="116" x2="32" y2="116" stroke="#ffffff" stroke-width="4"/><line x1="20" y1="116" x2="32" y2="116" stroke="#1a73e8" stroke-width="1.5"/><rect x="44" y="89" width="24" height="27" fill="#e8f5ee" stroke="#202124" stroke-width="1.2"/><line x1="50" y1="116" x2="62" y2="116" stroke="#ffffff" stroke-width="4"/><line x1="50" y1="116" x2="62" y2="116" stroke="#1a73e8" stroke-width="1.5"/><rect x="68" y="8" width="12" height="108" fill="#e8f5ee" stroke="#202124" stroke-width="1.2"/><rect x="80" y="8" width="48" height="42" fill="#e8f5ee" stroke="#202124" stroke-width="1.2"/><line x1="98" y1="8" x2="110" y2="8" stroke="#ffffff" stroke-width="4"/><line x1="98" y1="8" x2="110" y2="8" stroke="#1a73e8" stroke-width="1.5"/><rect x="128" y="8" width="30" height="24" fill="#e8f5ee" stroke="#202124" stroke-width="1.2"/><line x1="137" y1="8" x2="149" y2="8" stroke="#ffffff" stroke-width="4"/><line x1="137" y1="8" x2="149" y2="8" stroke="#1a73e8" stroke-width="1.5"/><line x1="158" y1="14" x2="158" y2="26" stroke="#ffffff" stroke-width="4"/><line x1="158" y1="14" x2="158" y2="26" stroke="#1a73e8" stroke-width="1.5"/><rect x="128" y="32" width="30" height="18" fill="#e8f5ee" stroke="#202124" stroke-width="1.2"/><rect x="80" y="50" width="39" height="36" fill="#e8f5ee" stroke="#202124" stroke-width="1.2"/><rect x="119" y="50" width="39" height="36" fill="#e8f5ee" stroke="#202124" stroke-width="1.2"/><line x1="158" y1="62" x2="158" y2="74" stroke="#ffffff" stroke-width="4"/><line x1="158" y1="62" x2="158" y2="74" stroke="#1a73e8" stroke-width="1.5"/><rect x="80" y="86" width="24" height="30" fill="#e8f5ee" stroke="#202124" stroke-width="1.2"/><line x1="86" y1="116" x2="98" y2="116" stroke="#ffffff" stroke-width="4"/><line x1="86" y1="116" x2="98" y2="116" stroke="#1a73e8" stroke-width="1.5"/><rect x="104" y="86" width="18" height="30" fill="#e8f5ee" stroke="#202124" stroke-width="1.2"/><line x1="107.6" y1="116" x2="118.4" y2="116" stroke="#ffffff" stroke-width="4"/><line x1="107.6" y1="116" x2="118.4" y2="116" stroke="#1a73e8" stroke-width="1.5"/><rect x="122" y="86" width="36" height="30" fill="#e8f5ee" stroke="#202124" stroke-width="1.2"/><line x1="134" y1="116" x2="146" y2="116" stroke="#ffffff" stroke-width="4"/><line x1="134" y1="116" x2="146" y2="116" stroke="#1a73e8" stroke-width="1.5"/><line x1="158" y1="95" x2="158" y2="107" stroke="#ffffff" stroke-width="4"/><line x1="158" y1="95" x2="158" y2="107" stroke="#1a73e8" stroke-width="1.5"/><rect x="8" y="8" width="150" height="108" fill="none" stroke="#202124" stroke-width="2.5"/></svg>